<svg xmlns="http://www.w3.org/2000/svg" xmlns:xlink="http://www.w3.org/1999/xlink"
  viewBox="0 0 1000 1000" width="528" height="528" preserveAspectRatio="xMidYMid meet"
  style="width: 100%; height: 100%; transform: translate3d(0px, 0px, 0px); content-visibility: visible; background-color: transparent;">
  <defs>
    <clipPath id="__lottie_element_2">
      <rect width="1000" height="1000" x="0" y="0" />
    </clipPath>
  </defs>
  <g clip-path="url(#__lottie_element_2)">
    <g transform="matrix(1,0,0,1,506,508)" opacity="0.05" style="display: block;">
      <g opacity="1" transform="matrix(1,0,0,1,-1,410)">
        <path fill="rgb(0,0,0)" fill-opacity="1"
          d=" M0,-24 C70.09130096435547,-24 127,-13.245599746704102 127,0 C127,13.245599746704102 70.09130096435547,24 0,24 C-70.09130096435547,24 -127,13.245599746704102 -127,0 C-127,-13.245599746704102 -70.09130096435547,-24 0,-24z" />
        <path stroke-linecap="butt" stroke-linejoin="miter" fill-opacity="0" stroke-miterlimit="4"
          stroke="rgb(0,0,0)" stroke-opacity="1" stroke-width="0"
          d=" M0,-24 C70.09130096435547,-24 127,-13.245599746704102 127,0 C127,13.245599746704102 70.09130096435547,24 0,24 C-70.09130096435547,24 -127,13.245599746704102 -127,0 C-127,-13.245599746704102 -70.09130096435547,-24 0,-24z" />
      </g>
    </g>
    <g
      transform="matrix(0.6685311198234558,0.11067523807287216,-0.11067523807287216,0.6685311198234558,449.5562438964844,345.5421142578125)"
      opacity="1" style="display: block;">
      <g opacity="1" transform="matrix(1,0,0,1,102.4729995727539,164.2100067138672)">
        <path fill="rgb(9,9,9)" fill-opacity="1"
          d=" M-68.4020004272461,-108.06700134277344 C-68.4020004272461,-108.06700134277344 -64.36399841308594,-16.576000213623047 -88.91000366210938,25.924999237060547 C-116.87300109863281,74.34400177001953 -59.1870002746582,133.5019989013672 24.56100082397461,129.3280029296875 C115.53600311279297,124.79199981689453 85.91000366210938,-43.74399948120117 26.55900001525879,-132.51499938964844 C26.55900001525879,-132.51499938964844 -68.4020004272461,-108.06700134277344 -68.4020004272461,-108.06700134277344z" />
      </g>
      <g opacity="1" transform="matrix(1,0,0,1,46.858001708984375,99.86100006103516)">
        <path fill="rgb(241,168,142)" fill-opacity="1"
          d=" M15.055000305175781,-1.7009999752044678 C15.994000434875488,6.61299991607666 10.015000343322754,14.114999771118164 1.7009999752044678,15.053999900817871 C-6.61299991607666,15.994000434875488 -14.114999771118164,10.015000343322754 -15.055000305175781,1.7009999752044678 C-15.994000434875488,-6.613999843597412 -10.015000343322754,-14.116000175476074 -1.7009999752044678,-15.055000305175781 C6.613999843597412,-15.994000434875488 14.116000175476074,-10.015999794006348 15.055000305175781,-1.7009999752044678z" />
      </g>
      <g opacity="1" transform="matrix(1,0,0,1,44.2869987487793,100.00499725341797)">
        <path stroke-linecap="round" stroke-linejoin="round" fill-opacity="0"
          stroke="rgb(208,98,94)" stroke-opacity="1" stroke-width="0.661"
          d=" M-6.177999973297119,-1.5420000553131104 C-6.177999973297119,-1.5420000553131104 -0.4230000078678131,-4.9730000495910645 6.177999973297119,4.9730000495910645" />
      </g>
      <g opacity="1" transform="matrix(1,0,0,1,132.1649932861328,92.65699768066406)">
        <path fill="rgb(241,168,142)" fill-opacity="1"
          d=" M-15.097000122070312,1.274999976158142 C-14.392999649047852,9.61299991607666 -7.063000202178955,15.800999641418457 1.274999976158142,15.097000122070312 C9.61299991607666,14.392999649047852 15.800000190734863,7.063000202178955 15.095999717712402,-1.2740000486373901 C14.392000198364258,-9.612000465393066 7.063000202178955,-15.800999641418457 -1.274999976158142,-15.097000122070312 C-9.61299991607666,-14.392000198364258 -15.800999641418457,-7.063000202178955 -15.097000122070312,1.274999976158142z" />
      </g>
      <g opacity="1" transform="matrix(1,0,0,1,135.0489959716797,92.85900115966797)">
        <path stroke-linecap="round" stroke-linejoin="round" fill-opacity="0"
          stroke="rgb(208,98,94)" stroke-opacity="1" stroke-width="0.661"
          d=" M5.422999858856201,-3.2839999198913574 C5.422999858856201,-3.2839999198913574 -0.8920000195503235,-5.521999835968018 -5.422999858856201,5.5229997634887695" />
      </g>
      <g opacity="1" transform="matrix(1,0,0,1,85.98699951171875,59.57600021362305)">
        <path fill="rgb(9,9,9)" fill-opacity="1"
          d=" M51.928001403808594,-4.385000228881836 C54.18899917602539,22.384000778198242 32.770999908447266,46.047000885009766 4.0920000076293945,48.46900177001953 C-24.586999893188477,50.88999938964844 -49.667999267578125,31.15399932861328 -51.928001403808594,4.385000228881836 C-54.18899917602539,-22.384000778198242 -32.77199935913086,-46.04800033569336 -4.093999862670898,-48.46900177001953 C24.584999084472656,-50.89099884033203 49.66699981689453,-31.15399932861328 51.928001403808594,-4.385000228881836z" />
      </g>
      <g opacity="1" transform="matrix(1,0,0,1,94.53099822998047,156.41099548339844)">
        <path fill="rgb(241,168,142)" fill-opacity="1"
          d=" M12.09000015258789,-31.246999740600586 C12.09000015258789,-31.246999740600586 6.065000057220459,-24.698999404907227 0.23399999737739563,-22.722999572753906 C-5.5970001220703125,-20.746999740600586 -11.77400016784668,-24.76799964904785 -11.852999687194824,-24.81599998474121 C-11.930999755859375,-24.864999771118164 -19.256000518798828,-29.448999404907227 -19.256000518798828,-29.448999404907227 C-19.256000518798828,-29.448999404907227 -17.85099983215332,20.472999572753906 -17.85099983215332,20.472999572753906 C-17.85099983215332,20.472999572753906 -17.010000228881836,21.238000869750977 -17.010000228881836,21.238000869750977 C-5.979000091552734,31.24799919128418 8.595999717712402,30.16900062561035 17.895999908447266,18.65399932861328 C17.895999908447266,18.65399932861328 19.2549991607666,16.9689998626709 19.2549991607666,16.9689998626709 C19.2549991607666,16.9689998626709 12.09000015258789,-31.246999740600586 12.09000015258789,-31.246999740600586z" />
      </g>
      <g opacity="1" transform="matrix(1,0,0,1,89.59200286865234,134.03199768066406)">
        <path fill="rgb(255,150,116)" fill-opacity="1"
          d=" M-19.573999404907227,-13.23799991607666 C-19.573999404907227,-13.23799991607666 -8.744999885559082,15.08899974822998 6.179999828338623,13.541999816894531 C18.448999404907227,12.270000457763672 19.573999404907227,-15.09000015258789 19.573999404907227,-15.09000015258789 C19.573999404907227,-15.09000015258789 -19.573999404907227,-13.23799991607666 -19.573999404907227,-13.23799991607666z" />
      </g>
      <g opacity="1" transform="matrix(1,0,0,1,83.82599639892578,80.06800079345703)">
        <path fill="rgb(241,168,142)" fill-opacity="1"
          d=" M44.05500030517578,-15.477999687194824 C45.516998291015625,0.847000002861023 44.34199905395508,15.152999877929688 42.80500030517578,25.3700008392334 C41.29999923706055,35.37200164794922 35.21099853515625,42.8129997253418 26.233999252319336,49.167999267578125 C26.233999252319336,49.167999267578125 24.600000381469727,50.32500076293945 24.600000381469727,50.32500076293945 C15.10200023651123,57.04800033569336 2.1679999828338623,58.34299850463867 -8.508000373840332,53.63999938964844 C-19.274999618530273,48.895999908447266 -27.12700080871582,42.073001861572266 -30.27899932861328,31.767000198364258 C-36.0099983215332,13.020999908447266 -38.34400177001953,-8.100000381469727 -38.34400177001953,-8.100000381469727 C-38.34400177001953,-8.100000381469727 -45.516998291015625,-51.98699951171875 -1.0080000162124634,-55.165000915527344 C43.500999450683594,-58.34299850463867 44.05500030517578,-15.477999687194824 44.05500030517578,-15.477999687194824z" />
      </g>
      <g opacity="1" transform="matrix(1,0,0,1,87.44599914550781,94.14399719238281)">
        <path stroke-linecap="round" stroke-linejoin="round" fill-opacity="0"
          stroke="rgb(208,98,94)" stroke-opacity="1" stroke-width="0.661"
          d=" M-2.4509999752044678,-3.190999984741211 C-2.4509999752044678,-3.190999984741211 -1.9119999408721924,3.190999984741211 -1.9119999408721924,3.190999984741211 C-1.9119999408721924,3.190999984741211 2.4509999752044678,2.822999954223633 2.4509999752044678,2.822999954223633" />
      </g>
      <g opacity="1" transform="matrix(1,0,0,1,64.5250015258789,65.5479965209961)">
        <path fill="rgb(0,0,0)" fill-opacity="1"
          d=" M-11.664999961853027,5.008999824523926 C-11.664999961853027,5.008999824523926 11.664999961853027,0.9049999713897705 11.664999961853027,0.9049999713897705 C11.664999961853027,0.9049999713897705 9.043999671936035,-5.008999824523926 -0.37599998712539673,-3.2190001010894775 C-10.015999794006348,-1.3860000371932983 -11.664999961853027,5.008999824523926 -11.664999961853027,5.008999824523926z" />
      </g>
      <g opacity="1" transform="matrix(1,0,0,1,105.63600158691406,61.89899826049805)">
        <path fill="rgb(0,0,0)" fill-opacity="1"
          d=" M11.843000411987305,3.2019999027252197 C11.843000411987305,3.2019999027252197 -11.843000411987305,3.066999912261963 -11.843000411987305,3.066999912261963 C-11.843000411987305,3.066999912261963 -10.253000259399414,-3.2009999752044678 -0.6650000214576721,-3.0160000324249268 C9.145999908447266,-2.8259999752044678 11.843000411987305,3.2019999027252197 11.843000411987305,3.2019999027252197z" />
      </g>
      <g opacity="1" transform="matrix(1,0,0,1,94.17900085449219,32.736000061035156)">
        <path fill="rgb(9,9,9)" fill-opacity="1"
          d=" M32.854000091552734,21.81399917602539 C32.854000091552734,21.81399917602539 -32.374000549316406,29.79199981689453 -32.854000091552734,-8.8149995803833 C-32.854000091552734,-8.8149995803833 22.80500030517578,-29.79199981689453 32.854000091552734,21.81399917602539z" />
      </g>
      <g opacity="1" transform="matrix(1,0,0,1,53.143001556396484,44.06399917602539)">
        <path fill="rgb(9,9,9)" fill-opacity="1"
          d=" M-9.513999938964844,17.56100082397461 C-9.513999938964844,17.56100082397461 12.661999702453613,5.999000072479248 10.67300033569336,-17.56100082397461 C10.67300033569336,-17.56100082397461 -12.661999702453613,-12.854000091552734 -9.513999938964844,17.56100082397461z" />
      </g>
    </g>
    <g
      transform="matrix(1.2689299583435059,0,0,1.2689299583435059,423.1329650878906,540.4337768554688)"
      opacity="1" style="display: block;">
      <g opacity="1" transform="matrix(1,0,0,1,81.3949966430664,268.5260009765625)">
        <path fill="rgb(249,175,146)" fill-opacity="1"
          d=" M-7.468999862670898,20.989999771118164 C-7.468999862670898,20.989999771118164 -6.538000106811523,-27.674999237060547 -6.538000106811523,-27.674999237060547 C-6.538000106811523,-27.674999237060547 7.468999862670898,-26.649999618530273 7.468999862670898,-26.649999618530273 C7.468999862670898,-26.649999618530273 5.067999839782715,27.673999786376953 5.067999839782715,27.673999786376953 C5.067999839782715,27.673999786376953 -7.468999862670898,20.989999771118164 -7.468999862670898,20.989999771118164z" />
      </g>
      <g opacity="1" transform="matrix(1,0,0,1,42.13800048828125,269.08099365234375)">
        <path fill="rgb(249,175,146)" fill-opacity="1"
          d=" M6.696000099182129,24.832000732421875 C6.696000099182129,24.832000732421875 7.38700008392334,-30.753999710083008 7.38700008392334,-30.753999710083008 C7.38700008392334,-30.753999710083008 -7.38700008392334,-25.91900062561035 -7.38700008392334,-25.91900062561035 C-7.38700008392334,-25.91900062561035 -4.060999870300293,30.753999710083008 -4.060999870300293,30.753999710083008 C-4.060999870300293,30.753999710083008 6.696000099182129,24.832000732421875 6.696000099182129,24.832000732421875z" />
      </g>
      <g opacity="1" transform="matrix(1,0,0,1,59.00699996948242,148.36300659179688)">
        <path fill="rgb(250,170,57)" fill-opacity="1"
          d=" M21.98900032043457,-127.72000122070312 C21.98900032043457,-127.72000122070312 43.17399978637695,-97.36799621582031 42.599998474121094,-64.18599700927734 C42.0260009765625,-31.003999710083008 32.69499969482422,126.41400146484375 32.69499969482422,126.41400146484375 C32.69499969482422,126.41400146484375 7.478000164031982,126.41400146484375 7.478000164031982,126.41400146484375 C7.478000164031982,126.41400146484375 1.8960000276565552,-79.28500366210938 1.8960000276565552,-79.28500366210938 C1.8960000276565552,-79.28500366210938 -1.4320000410079956,-79.48799896240234 -1.4320000410079956,-79.48799896240234 C-1.4320000410079956,-79.48799896240234 -4.935999870300293,126.41400146484375 -4.935999870300293,126.41400146484375 C-4.935999870300293,126.41400146484375 -24.34600067138672,127.72000122070312 -24.34600067138672,127.72000122070312 C-24.34600067138672,127.72000122070312 -42.98400115966797,-60.37900161743164 -42.98400115966797,-60.37900161743164 C-43.10900115966797,-61.63399887084961 -43.17300033569336,-62.89899826049805 -43.165000915527344,-64.15899658203125 C-43.00600051879883,-90.39900207519531 -39.33700180053711,-107.05699920654297 -17.165000915527344,-126 C-17.165000915527344,-126 21.98900032043457,-127.72000122070312 21.98900032043457,-127.72000122070312z" />
      </g>
      <g opacity="1" transform="matrix(1,0,0,1,43.393001556396484,296.4809875488281)">
        <path fill="rgb(9,9,9)" fill-opacity="1"
          d=" M12.230999946594238,2.130000114440918 C12.230999946594238,7.383999824523926 6.755000114440918,6.802000045776367 0,6.802000045776367 C-6.755000114440918,6.802000045776367 -12.230999946594238,7.383999824523926 -12.230999946594238,2.130000114440918 C-12.230999946594238,-3.124000072479248 -6.755000114440918,-7.383999824523926 0,-7.383999824523926 C6.755000114440918,-7.383999824523926 12.230999946594238,-3.124000072479248 12.230999946594238,2.130000114440918z" />
      </g>
      <g opacity="1" transform="matrix(1,0,0,1,79.41400146484375,295.2799987792969)">
        <path fill="rgb(9,9,9)" fill-opacity="1"
          d=" M12.232000350952148,2.128999948501587 C12.232000350952148,7.382999897003174 6.755000114440918,6.802000045776367 0.0010000000474974513,6.802000045776367 C-6.754000186920166,6.802000045776367 -12.232000350952148,7.382999897003174 -12.232000350952148,2.128999948501587 C-12.232000350952148,-3.125 -6.754000186920166,-7.383999824523926 0.0010000000474974513,-7.383999824523926 C6.755000114440918,-7.383999824523926 12.232000350952148,-3.125 12.232000350952148,2.128999948501587z" />
      </g>
      <g opacity="1" transform="matrix(1,0,0,1,42.933998107910156,288.5050048828125)">
        <path fill="rgb(9,9,9)" fill-opacity="1"
          d=" M8.184000015258789,6.494999885559082 C8.184000015258789,6.494999885559082 -8.184000015258789,6.494999885559082 -8.184000015258789,6.494999885559082 C-8.184000015258789,6.494999885559082 -6.317999839782715,-5.546000003814697 -6.317999839782715,-5.546000003814697 C-6.317999839782715,-5.546000003814697 6.5920000076293945,-6.494999885559082 6.5920000076293945,-6.494999885559082 C6.5920000076293945,-6.494999885559082 8.184000015258789,6.494999885559082 8.184000015258789,6.494999885559082z" />
      </g>
      <g opacity="1" transform="matrix(1,0,0,1,80.15599822998047,288.5050048828125)">
        <path fill="rgb(9,9,9)" fill-opacity="1"
          d=" M8.184000015258789,6.494999885559082 C8.184000015258789,6.494999885559082 -8.184000015258789,6.494999885559082 -8.184000015258789,6.494999885559082 C-8.184000015258789,6.494999885559082 -6.318999767303467,-5.546000003814697 -6.318999767303467,-5.546000003814697 C-6.318999767303467,-5.546000003814697 6.5920000076293945,-6.494999885559082 6.5920000076293945,-6.494999885559082 C6.5920000076293945,-6.494999885559082 8.184000015258789,6.494999885559082 8.184000015258789,6.494999885559082z" />
      </g>
    </g>
    <g
      transform="matrix(0.8777210712432861,0.010362823493778706,-0.010362823493778706,0.8777210712432861,401.67694091796875,448.8235168457031)"
      opacity="1" style="display: block;">
      <g opacity="1" transform="matrix(1,0,0,1,106.95700073242188,82.1729965209961)">
        <path fill="rgb(250,85,69)" fill-opacity="1"
          d=" M-1.034999966621399,-61.183998107910156 C-1.034999966621399,-61.183998107910156 -39.88199996948242,-50.26599884033203 -39.88199996948242,-50.26599884033203 C-51.09400177001953,-47.11600112915039 -60.07699966430664,-35.220001220703125 -56.689998626708984,-24.077999114990234 C-56.689998626708984,-24.077999114990234 -28.226999282836914,61.183998107910156 -28.226999282836914,61.183998107910156 C-28.226999282836914,61.183998107910156 41.04499816894531,57.952999114990234 41.04499816894531,57.952999114990234 C41.04499816894531,57.952999114990234 58.29399871826172,-33.367000579833984 58.29399871826172,-33.367000579833984 C60.077999114990234,-45.01900100708008 47.99300003051758,-55.599998474121094 36.28099822998047,-56.933998107910156 C36.28099822998047,-56.933998107910156 -1.034999966621399,-61.183998107910156 -1.034999966621399,-61.183998107910156z" />
      </g>
      <g opacity="1"
        transform="matrix(1,0,0,1.2250399589538574,105.15699768066406,33.569000244140625)">
        <path fill="rgb(241,168,142)" fill-opacity="1"
          d=" M-38.08100128173828,-1.6640000343322754 C-38.08100128173828,-1.6640000343322754 0.7649999856948853,-12.581000328063965 0.7649999856948853,-12.581000328063965 C0.7649999856948853,-12.581000328063965 37.22700119018555,-7.166999816894531 37.22700119018555,-7.166999816894531 C37.22700119018555,-7.166999816894531 36.16899871826172,-6.519000053405762 36.16899871826172,-6.519000053405762 C14.880999565124512,11.32800006866455 -14.230999946594238,12.579999923706055 -38.08100128173828,-1.6640000343322754z" />
      </g>
      <g opacity="1" transform="matrix(1,0,0,1,40.96500015258789,88.53600311279297)">
        <path fill="rgb(250,85,69)" fill-opacity="1"
          d=" M-3.9260001182556152,-30.889999389648438 C-3.9260001182556152,-30.889999389648438 -33.2760009765625,35.847999572753906 -33.2760009765625,35.847999572753906 C-34.547000885009766,40.52799987792969 -31.613000869750977,45.3129997253418 -26.86400032043457,46.29999923706055 C-26.86400032043457,46.29999923706055 -13.027999877929688,49.41899871826172 -13.027999877929688,49.41899871826172 C-10.237000465393066,49.999000549316406 -8.508999824523926,56.630001068115234 -6.808000087738037,54.34299850463867 C-1.1160000562667847,46.698001861572266 30.474000930786133,14.670000076293945 26.51099967956543,-11.781999588012695 C26.51099967956543,-11.781999588012695 34.547000885009766,-31.08300018310547 34.547000885009766,-31.08300018310547 C34.547000885009766,-31.08300018310547 26.110000610351562,-56.630001068115234 26.110000610351562,-56.630001068115234 C7.484000205993652,-52.17399978637695 -1.4079999923706055,-39.90599822998047 -3.9260001182556152,-30.889999389648438z" />
      </g>
      <g opacity="1" transform="matrix(1,0,0,1,112.83899688720703,94.47100067138672)">
        <path fill="rgb(255,255,255)" fill-opacity="1"
          d=" M12.753999710083008,15.041999816894531 C12.753999710083008,15.041999816894531 -10.050999641418457,16.9689998626709 -10.050999641418457,16.9689998626709 C-10.050999641418457,16.9689998626709 -12.753999710083008,-15.043000221252441 -12.753999710083008,-15.043000221252441 C-12.753999710083008,-15.043000221252441 10.050999641418457,-16.9689998626709 10.050999641418457,-16.9689998626709 C10.050999641418457,-16.9689998626709 12.753999710083008,15.041999816894531 12.753999710083008,15.041999816894531z" />
      </g>
      <g opacity="1" transform="matrix(1,0,0,1,106.25499725341797,51.027000427246094)">
        <path stroke-linecap="butt" stroke-linejoin="miter" fill-opacity="0" stroke-miterlimit="10"
          stroke="rgb(255,255,255)" stroke-opacity="1" stroke-width="1"
          d=" M-29.676000595092773,-21.79199981689453 C-29.676000595092773,-21.79199981689453 -18.788000106811523,23.079999923706055 2.6540000438690186,24.849000930786133 C24.09600067138672,26.618999481201172 29.674999237060547,-26.618999481201172 29.674999237060547,-26.618999481201172" />
      </g>
      <g opacity="1" transform="matrix(1,0,0,1,111.20500183105469,77.18399810791016)">
        <path fill="rgb(255,255,255)" fill-opacity="1"
          d=" M1.9919999837875366,2.122999906539917 C1.9919999837875366,2.122999906539917 -1.2359999418258667,2.635999917984009 -1.2359999418258667,2.635999917984009 C-1.2359999418258667,2.635999917984009 -1.9919999837875366,-2.122999906539917 -1.9919999837875366,-2.122999906539917 C-1.9919999837875366,-2.122999906539917 1.2359999418258667,-2.635999917984009 1.2359999418258667,-2.635999917984009 C1.2359999418258667,-2.635999917984009 1.9919999837875366,2.122999906539917 1.9919999837875366,2.122999906539917z" />
      </g>
      <g opacity="1" transform="matrix(1,0,0,1,112.33300018310547,88.4749984741211)">
        <path fill="rgb(250,170,57)" fill-opacity="1"
          d=" M3.927000045776367,0 C3.927000045776367,2.1679999828338623 2.1679999828338623,3.9260001182556152 -0.0010000000474974513,3.9260001182556152 C-2.1689999103546143,3.9260001182556152 -3.9260001182556152,2.1679999828338623 -3.9260001182556152,0 C-3.9260001182556152,-2.1679999828338623 -2.1689999103546143,-3.9260001182556152 -0.0010000000474974513,-3.9260001182556152 C2.1679999828338623,-3.9260001182556152 3.927000045776367,-2.1679999828338623 3.927000045776367,0z" />
      </g>
      <g opacity="1" transform="matrix(1,0,0,1,113.72899627685547,99.4020004272461)">
        <path fill="rgb(9,9,9)" fill-opacity="1"
          d=" M7.181000232696533,-0.07000000029802322 C7.181000232696533,-0.07000000029802322 -7.0920000076293945,1.1349999904632568 -7.0920000076293945,1.1349999904632568 C-7.255000114440918,1.1490000486373901 -7.3979997634887695,1.027999997138977 -7.4120001792907715,0.8650000095367432 C-7.4120001792907715,0.8650000095367432 -7.452000141143799,0.38999998569488525 -7.452000141143799,0.38999998569488525 C-7.465000152587891,0.22699999809265137 -7.343999862670898,0.08399999886751175 -7.182000160217285,0.07100000232458115 C-7.182000160217285,0.07100000232458115 7.091000080108643,-1.1349999904632568 7.091000080108643,-1.1349999904632568 C7.254000186920166,-1.1490000486373901 7.396999835968018,-1.027999997138977 7.410999774932861,-0.8650000095367432 C7.410999774932861,-0.8650000095367432 7.451000213623047,-0.38999998569488525 7.451000213623047,-0.38999998569488525 C7.465000152587891,-0.22699999809265137 7.343999862670898,-0.08399999886751175 7.181000232696533,-0.07000000029802322z" />
      </g>
      <g opacity="1" transform="matrix(1,0,0,1,114.08100128173828,103.56800079345703)">
        <path fill="rgb(9,9,9)" fill-opacity="1"
          d=" M7.181000232696533,-0.07100000232458115 C7.181000232696533,-0.07100000232458115 -7.091000080108643,1.1349999904632568 -7.091000080108643,1.1349999904632568 C-7.255000114440918,1.1490000486373901 -7.3979997634887695,1.027999997138977 -7.410999774932861,0.8650000095367432 C-7.410999774932861,0.8650000095367432 -7.451000213623047,0.38999998569488525 -7.451000213623047,0.38999998569488525 C-7.465000152587891,0.2280000001192093 -7.343999862670898,0.08399999886751175 -7.181000232696533,0.07100000232458115 C-7.181000232696533,0.07100000232458115 7.091000080108643,-1.1349999904632568 7.091000080108643,-1.1349999904632568 C7.254000186920166,-1.1490000486373901 7.396999835968018,-1.027999997138977 7.410999774932861,-0.8659999966621399 C7.410999774932861,-0.8659999966621399 7.451000213623047,-0.39100000262260437 7.451000213623047,-0.39100000262260437 C7.465000152587891,-0.2280000001192093 7.343999862670898,-0.08500000089406967 7.181000232696533,-0.07100000232458115z" />
      </g>
    </g>
    <g
      transform="matrix(1.1807279586791992,0.013940276578068733,-0.013940276578068733,1.1807279586791992,518.4539184570312,470.20880126953125)"
      opacity="1" style="display: block;">
      <g opacity="1" transform="matrix(1,0,0,1,53.64699935913086,97.98100280761719)">
        <path fill="rgb(241,168,142)" fill-opacity="1"
          d=" M-10.529999732971191,-25.718000411987305 C-10.529999732971191,-25.718000411987305 2.621999979019165,35.42900085449219 2.621999979019165,35.42900085449219 C2.621999979019165,35.42900085449219 11.305999755859375,34.98099899291992 11.305999755859375,34.98099899291992 C11.305999755859375,34.98099899291992 8.524999618530273,-2.8480000495910645 5.302000045776367,-28.142000198364258 C4.789999961853027,-32.154998779296875 -0.38199999928474426,-35.42900085449219 -4.340000152587891,-34.59700012207031 C-8.048999786376953,-33.81700134277344 -11.305999755859375,-29.427000045776367 -10.529999732971191,-25.718000411987305z" />
      </g>
      <g opacity="1" transform="matrix(1,0,0,1,60.736000061035156,149.56500244140625)">
        <path fill="rgb(241,168,142)" fill-opacity="1"
          d=" M-3.4619998931884766,-20.19300079345703 C-3.4619998931884766,-20.19300079345703 -7.742000102996826,-13.491999626159668 -5.099999904632568,-4.959000110626221 C-5.099999904632568,-4.959000110626221 -7.052999973297119,3.380000114440918 -7.052999973297119,3.380000114440918 C-7.355999946594238,4.673999786376953 -6.72599983215332,6.03000020980835 -5.574999809265137,6.557000160217285 C-4.329999923706055,7.126999855041504 -2.9079999923706055,6.534999847412109 -2.364000082015991,5.2170000076293945 C-2.364000082015991,5.2170000076293945 -0.41499999165534973,0.5059999823570251 -0.41499999165534973,0.5059999823570251 C-0.41499999165534973,0.5059999823570251 -0.20999999344348907,2.309000015258789 -0.20999999344348907,2.309000015258789 C0.11699999868869781,5.171000003814697 -0.4580000042915344,8.052000045776367 -1.8420000076293945,10.484000205993652 C-1.8420000076293945,10.484000205993652 -5.7820000648498535,17.4060001373291 -5.7820000648498535,17.4060001373291 C-6.230999946594238,18.194000244140625 -6.242000102996826,19.19099998474121 -5.811999797821045,20.006000518798828 C-4.980000019073486,21.584999084472656 -2.953000068664551,21.788999557495117 -1.9129999876022339,20.400999069213867 C-1.9129999876022339,20.400999069213867 4.329999923706055,12.060999870300293 4.329999923706055,12.060999870300293 C6.749000072479248,8.82800006866455 7.742000102996826,4.60099983215332 7.053999900817871,0.46000000834465027 C7.053999900817871,0.46000000834465027 3.3550000190734863,-21.788999557495117 3.3550000190734863,-21.788999557495117 C3.3550000190734863,-21.788999557495117 -3.4619998931884766,-20.19300079345703 -3.4619998931884766,-20.19300079345703z" />
      </g>
      <g opacity="1" transform="matrix(1,0,0,1,72.44499969482422,218.19200134277344)">
        <path fill="rgb(250,128,161)" fill-opacity="1"
          d=" M24.170000076293945,-30.636999130249023 C24.170000076293945,-30.636999130249023 25.704999923706055,20.854000091552734 25.704999923706055,20.854000091552734 C25.704999923706055,20.854000091552734 -24.170000076293945,30.636999130249023 -24.170000076293945,30.636999130249023 C-24.170000076293945,30.636999130249023 -25.704999923706055,-20.854999542236328 -25.704999923706055,-20.854999542236328 C-25.704999923706055,-20.854999542236328 24.170000076293945,-30.636999130249023 24.170000076293945,-30.636999130249023z" />
      </g>
      <g opacity="1" transform="matrix(1,0,0,1,62.40399932861328,176.35499572753906)">
        <path fill="rgb(250,128,161)" fill-opacity="1"
          d=" M14.154999732971191,-28.673999786376953 C14.154999732971191,-28.673999786376953 35.720001220703125,18.888999938964844 35.720001220703125,18.888999938964844 C35.720001220703125,18.888999938964844 -14.154999732971191,28.67300033569336 -14.154999732971191,28.67300033569336 C-14.154999732971191,28.67300033569336 -35.720001220703125,-18.891000747680664 -35.720001220703125,-18.891000747680664 C-35.720001220703125,-18.891000747680664 14.154999732971191,-28.673999786376953 14.154999732971191,-28.673999786376953z" />
      </g>
      <g opacity="1" transform="matrix(1,0,0,1,72.41000366210938,196.1750030517578)">
        <path fill="rgb(209,105,136)" fill-opacity="1"
          d=" M27.128999710083008,-6.193999767303467 C27.128999710083008,-6.193999767303467 27.458999633789062,-4.513999938964844 27.458999633789062,-4.513999938964844 C27.91200065612793,-2.2039999961853027 26.4060001373291,0.03700000047683716 24.094999313354492,0.4909999966621399 C24.094999313354492,0.4909999966621399 -22.124000549316406,9.555999755859375 -22.124000549316406,9.555999755859375 C-24.434999465942383,10.008999824523926 -26.676000595092773,8.503000259399414 -27.128999710083008,6.192999839782715 C-27.128999710083008,6.192999839782715 -27.45800018310547,4.513000011444092 -27.45800018310547,4.513000011444092 C-27.91200065612793,2.2019999027252197 -26.4060001373291,-0.03799999877810478 -24.094999313354492,-0.492000013589859 C-24.094999313354492,-0.492000013589859 22.125,-9.557000160217285 22.125,-9.557000160217285 C24.434999465942383,-10.010000228881836 26.676000595092773,-8.505000114440918 27.128999710083008,-6.193999767303467z" />
      </g>
      <g opacity="1" transform="matrix(1,0,0,1,60.499000549316406,142.23399353027344)">
        <path fill="rgb(241,168,142)" fill-opacity="1"
          d=" M7.505000114440918,7.125999927520752 C7.505000114440918,7.125999927520752 3.5920000076293945,-14.458000183105469 3.5920000076293945,-14.458000183105469 C3.5920000076293945,-14.458000183105469 -3.2249999046325684,-12.862000465393066 -3.2249999046325684,-12.862000465393066 C-3.2249999046325684,-12.862000465393066 -7.505000114440918,-6.1620001792907715 -4.86299991607666,2.371999979019165 C-4.86299991607666,2.371999979019165 -6.815999984741211,10.711000442504883 -6.815999984741211,10.711000442504883 C-7.11899995803833,12.005000114440918 -6.488999843597412,13.359999656677246 -5.3379998207092285,13.887999534606934 C-4.0929999351501465,14.458000183105469 -2.6700000762939453,13.864999771118164 -2.125999927520752,12.54800033569336 C-2.125999927520752,12.54800033569336 -0.17800000309944153,7.836999893188477 -0.17800000309944153,7.836999893188477 C-0.17800000309944153,7.836999893188477 0.19900000095367432,8.559000015258789 0.19900000095367432,8.559000015258789" />
      </g>
      <g opacity="1" transform="matrix(1,0,0,1,35.457000732421875,41.82600021362305)">
        <path fill="rgb(250,85,69)" fill-opacity="1"
          d=" M-0.11900000274181366,-18.83300018310547 C-0.11900000274181366,-18.83300018310547 24.368000030517578,23.04400062561035 24.368000030517578,23.04400062561035 C25.565000534057617,26.041000366210938 23.98900032043457,29.427000045776367 20.926000595092773,30.44099998474121 C20.926000595092773,30.44099998474121 9.123000144958496,34.35200119018555 9.123000144958496,34.35200119018555 C7.322000026702881,34.948001861572266 5.341000080108643,34.459999084472656 4.041999816894531,33.07899856567383 C-0.30300000309944153,28.458999633789062 -19.38599967956543,13.904000282287598 -18.781999588012695,-3.881999969482422 C-18.781999588012695,-3.881999969482422 -25.565000534057617,-16.027999877929688 -25.565000534057617,-16.027999877929688 C-25.565000534057617,-16.027999877929688 -24.259000778198242,-34.946998596191406 -24.259000778198242,-34.946998596191406 C-11.607000350952148,-33.42100143432617 -2.4709999561309814,-24.600000381469727 -0.11900000274181366,-18.83300018310547z" />
      </g>
    </g>
    <g
      transform="matrix(1.1765135526657104,-0.2143087089061737,0.2143087089061737,1.1765135526657104,300.9441833496094,490.0883483886719)"
      opacity="1" style="display: block;">
      <g opacity="1" transform="matrix(1,0,0,1,68.2979965209961,62.854000091552734)">
        <path fill="rgb(241,168,142)" fill-opacity="1"
          d=" M-19.606000900268555,-32.06800079345703 C-19.606000900268555,-32.06800079345703 -28.777999877929688,-28.30900001525879 -28.777999877929688,-28.30900001525879 C-28.777999877929688,-28.30900001525879 8.180000305175781,24.55699920654297 8.180000305175781,24.55699920654297 C11.107000350952148,30.437999725341797 18.746000289916992,32.06800079345703 23.819000244140625,27.89299964904785 C28.03700065612793,24.42300033569336 28.777999877929688,18.24799919128418 25.503000259399414,13.876999855041504 C25.503000259399414,13.876999855041504 -19.606000900268555,-32.06800079345703 -19.606000900268555,-32.06800079345703z" />
      </g>
      <g opacity="1" transform="matrix(1,0,0,1,45.19200134277344,23.406999588012695)">
        <path fill="rgb(241,168,142)" fill-opacity="1"
          d=" M3.9170000553131104,10.038999557495117 C3.9170000553131104,10.038999557495117 5.781000137329102,7.261000156402588 5.781000137329102,7.261000156402588 C7.146999835968018,5.224999904632568 7.732999801635742,2.765000104904175 7.434000015258789,0.3310000002384186 C7.434000015258789,0.3310000002384186 6.6020002365112305,-6.453000068664551 6.6020002365112305,-6.453000068664551 C6.6020002365112305,-6.453000068664551 6.22599983215332,-10.038999557495117 -0.5529999732971191,-7.6519999504089355 C-7.333000183105469,-5.264999866485596 -7.732999801635742,-5.131999969482422 -7.203999996185303,-3.0820000171661377 C-7.203999996185303,-3.0820000171661377 -5.309000015258789,-0.4869999885559082 -0.6890000104904175,-0.878000020980835 C-0.6890000104904175,-0.878000020980835 3.9170000553131104,10.038999557495117 3.9170000553131104,10.038999557495117z" />
      </g>
      <g opacity="1" transform="matrix(1,0,0,1,39.32400131225586,24.472000122070312)">
        <path fill="rgb(241,168,142)" fill-opacity="1"
          d=" M1.1859999895095825,11.899999618530273 C1.1859999895095825,11.899999618530273 -6.520999908447266,9.574999809265137 -9.449000358581543,-2.4100000858306885 C-9.78600025177002,-3.7899999618530273 -9.383000373840332,-5.256999969482422 -8.38700008392334,-6.270999908447266 C-6.855999946594238,-7.831999778747559 -2.3499999046325684,-11.89900016784668 0.8180000185966492,-10.607000350952148 C0.8180000185966492,-10.607000350952148 6.999000072479248,-5.414999961853027 6.999000072479248,-5.414999961853027 C6.999000072479248,-5.414999961853027 9.78600025177002,8.973999977111816 9.78600025177002,8.973999977111816 C9.78600025177002,8.973999977111816 1.1859999895095825,11.899999618530273 1.1859999895095825,11.899999618530273z" />
      </g>
      <g opacity="1" transform="matrix(1,0,0,1,42.02000045776367,21.854000091552734)">
        <path stroke-linecap="round" stroke-linejoin="round" fill-opacity="0"
          stroke="rgb(208,98,94)" stroke-opacity="1" stroke-width="0.641"
          d=" M4.827000141143799,-6.7230000495910645 C4.827000141143799,-6.7230000495910645 -4.827000141143799,-5.580999851226807 -4.0320000648498535,-1.5290000438690186 C-4.0320000648498535,-1.5290000438690186 -3.5820000171661377,1.534999966621399 2.4820001125335693,0.6759999990463257 C2.4820001125335693,0.6759999990463257 -1.0160000324249268,2.5280001163482666 -0.2680000066757202,6.7230000495910645" />
      </g>
      <g opacity="1" transform="matrix(1,0,0,1,49.11000061035156,55.46799850463867)">
        <path fill="rgb(230,230,230)" fill-opacity="1"
          d=" M35.19499969482422,27.711000442504883 C35.19499969482422,27.711000442504883 -17.232999801635742,44.165000915527344 -17.40399932861328,40.73099899291992 C-19.35099983215332,1.6920000314712524 -35.19499969482422,-31.145999908447266 -35.19499969482422,-31.145999908447266 C-35.19499969482422,-31.145999908447266 9.394000053405762,-38.10300064086914 17.40399932861328,-44.165000915527344 C30.597000122070312,-23.85099983215332 35.19499969482422,27.711000442504883 35.19499969482422,27.711000442504883z" />
      </g>
    </g>
    <g
      transform="matrix(0.35720953345298767,0.05913599207997322,-0.05913599207997322,0.35720953345298767,515.7645874023438,449.75799560546875)"
      opacity="1" style="display: block;">
      <g opacity="1" transform="matrix(1,0,0,1,-103.25,-101.75)">
        <path fill="rgb(0,0,0)" fill-opacity="1"
          d=" M0,-7.25 C4.001275062561035,-7.25 7.25,-4.001275062561035 7.25,0 C7.25,4.001275062561035 4.001275062561035,7.25 0,7.25 C-4.001275062561035,7.25 -7.25,4.001275062561035 -7.25,0 C-7.25,-4.001275062561035 -4.001275062561035,-7.25 0,-7.25z" />
        <path stroke-linecap="butt" stroke-linejoin="miter" fill-opacity="0" stroke-miterlimit="4"
          stroke="rgb(0,0,0)" stroke-opacity="1" stroke-width="0"
          d=" M0,-7.25 C4.001275062561035,-7.25 7.25,-4.001275062561035 7.25,0 C7.25,4.001275062561035 4.001275062561035,7.25 0,7.25 C-4.001275062561035,7.25 -7.25,4.001275062561035 -7.25,0 C-7.25,-4.001275062561035 -4.001275062561035,-7.25 0,-7.25z" />
      </g>
    </g>
    <g
      transform="matrix(0.35720953345298767,0.05913599207997322,-0.05913599207997322,0.35720953345298767,540.8994750976562,451.76507568359375)"
      opacity="1" style="display: block;">
      <g opacity="1" transform="matrix(1,0,0,1,-103.25,-101.75)">
        <path fill="rgb(0,0,0)" fill-opacity="1"
          d=" M0,-7.25 C4.001275062561035,-7.25 7.25,-4.001275062561035 7.25,0 C7.25,4.001275062561035 4.001275062561035,7.25 0,7.25 C-4.001275062561035,7.25 -7.25,4.001275062561035 -7.25,0 C-7.25,-4.001275062561035 -4.001275062561035,-7.25 0,-7.25z" />
        <path stroke-linecap="butt" stroke-linejoin="miter" fill-opacity="0" stroke-miterlimit="4"
          stroke="rgb(0,0,0)" stroke-opacity="1" stroke-width="0"
          d=" M0,-7.25 C4.001275062561035,-7.25 7.25,-4.001275062561035 7.25,0 C7.25,4.001275062561035 4.001275062561035,7.25 0,7.25 C-4.001275062561035,7.25 -7.25,4.001275062561035 -7.25,0 C-7.25,-4.001275062561035 -4.001275062561035,-7.25 0,-7.25z" />
      </g>
    </g>
    <g
      transform="matrix(1.3509150743484497,0.10394848138093948,-0.0626286044716835,0.8139217495918274,627.0066528320312,508.09228515625)"
      opacity="1" style="display: block;">
      <g opacity="1" transform="matrix(1,0,0,1,-101.125,-82.5)">
        <path fill="rgb(205,13,13)" fill-opacity="1"
          d=" M0,-1 C1.8626625537872314,-1 3.375,-0.5519000291824341 3.375,0 C3.375,0.5519000291824341 1.8626625537872314,1 0,1 C-1.8626625537872314,1 -3.375,0.5519000291824341 -3.375,0 C-3.375,-0.5519000291824341 -1.8626625537872314,-1 0,-1z" />
        <path stroke-linecap="butt" stroke-linejoin="miter" fill-opacity="0" stroke-miterlimit="4"
          stroke="rgb(0,0,0)" stroke-opacity="1" stroke-width="0"
          d=" M0,-1 C1.8626625537872314,-1 3.375,-0.5519000291824341 3.375,0 C3.375,0.5519000291824341 1.8626625537872314,1 0,1 C-1.8626625537872314,1 -3.375,0.5519000291824341 -3.375,0 C-3.375,-0.5519000291824341 -1.8626625537872314,-1 0,-1z" />
      </g>
    </g>
    <g style="display: none;">
      <g>
        <path />
      </g>
    </g>
    <g transform="matrix(0,0,0,0,455.671875,376.8090515136719)" opacity="1" style="display: block;">
      <g opacity="1" transform="matrix(1,0,0,1,0,0)">
        <path fill="rgb(255,255,255)" fill-opacity="1"
          d=" M101.78500366210938,27.35700035095215 C101.91200256347656,24.895999908447266 102.73799896240234,23.666000366210938 104.26100158691406,23.666000366210938 C105.3550033569336,23.666000366210938 106.1259994506836,24.134000778198242 106.57499694824219,25.07200050354004 C106.57499694824219,25.07200050354004 106.57499694824219,31.10700035095215 106.57499694824219,31.10700035095215 C106.10600280761719,32.025001525878906 105.32599639892578,32.48400115966797 104.23200225830078,32.48400115966797 C102.59100341796875,32.48400115966797 101.77100372314453,31.07900047302246 101.77100372314453,28.266000747680664 C101.77100372314453,28.266000747680664 101.78500366210938,27.35700035095215 101.78500366210938,27.35700035095215z M98.48899841308594,34.125 C99.59200286865234,35.56999969482422 101.08699798583984,36.292999267578125 102.97200012207031,36.292999267578125 C104.53399658203125,36.292999267578125 105.822998046875,35.62900161743164 106.83899688720703,34.30099868774414 C106.83899688720703,34.30099868774414 107.08799743652344,36 107.08799743652344,36 C107.08799743652344,36 111.5260009765625,36 111.5260009765625,36 C111.5260009765625,36 111.5260009765625,13.5 111.5260009765625,13.5 C111.5260009765625,13.5 106.57499694824219,13.5 106.57499694824219,13.5 C106.57499694824219,13.5 106.57499694824219,21.527000427246094 106.57499694824219,21.527000427246094 C105.60800170898438,20.413999557495117 104.41699981689453,19.85700035095215 103.0009994506836,19.85700035095215 C101.05799865722656,19.85700035095215 99.54399871826172,20.579999923706055 98.45999908447266,22.024999618530273 C97.3759994506836,23.469999313354492 96.83399963378906,25.447999954223633 96.83399963378906,27.95800018310547 C96.83399963378906,30.624000549316406 97.38500213623047,32.68000030517578 98.48899841308594,34.125z" />
      </g>
      <g opacity="1" transform="matrix(1,0,0,1,0,0)">
        <path fill="rgb(255,255,255)" fill-opacity="1"
          d=" M79.09200286865234,20.149999618530273 C79.09200286865234,20.149999618530273 79.09200286865234,36 79.09200286865234,36 C79.09200286865234,36 84.02899932861328,36 84.02899932861328,36 C84.02899932861328,36 84.02899932861328,24.80900001525879 84.02899932861328,24.80900001525879 C84.49800109863281,24.047000885009766 85.21499633789062,23.666000366210938 86.18199920654297,23.666000366210938 C87.03199768066406,23.666000366210938 87.61799621582031,23.854000091552734 87.94000244140625,24.229999542236328 C88.26200103759766,24.606000900268555 88.42400360107422,25.194000244140625 88.42400360107422,25.9950008392334 C88.42400360107422,25.9950008392334 88.42400360107422,36 88.42400360107422,36 C88.42400360107422,36 93.375,36 93.375,36 C93.375,36 93.375,25.790000915527344 93.375,25.790000915527344 C93.34600067138672,23.808000564575195 92.9229965209961,22.322999954223633 92.10800170898438,21.336999893188477 C91.29199981689453,20.35099983215332 90.05899810791016,19.85700035095215 88.40899658203125,19.85700035095215 C86.48500061035156,19.85700035095215 84.97699737548828,20.575000762939453 83.88300323486328,22.01099967956543 C83.88300323486328,22.01099967956543 83.72100067138672,20.149999618530273 83.72100067138672,20.149999618530273 C83.72100067138672,20.149999618530273 79.09200286865234,20.149999618530273 79.09200286865234,20.149999618530273z" />
      </g>
      <g opacity="1" transform="matrix(1,0,0,1,0,0)">
        <path fill="rgb(255,255,255)" fill-opacity="1"
          d=" M70.50599670410156,36 C70.50599670410156,36 75.13500213623047,36 75.13500213623047,36 C75.13500213623047,36 75.13500213623047,20.149999618530273 75.13500213623047,20.149999618530273 C75.13500213623047,20.149999618530273 70.16899871826172,20.149999618530273 70.16899871826172,20.149999618530273 C70.16899871826172,20.149999618530273 70.16899871826172,31.268999099731445 70.16899871826172,31.268999099731445 C69.69000244140625,32.08000183105469 68.88500213623047,32.48400115966797 67.75199890136719,32.48400115966797 C66.43399810791016,32.48400115966797 65.7750015258789,31.80500030517578 65.7750015258789,30.447999954223633 C65.7750015258789,30.447999954223633 65.7750015258789,20.149999618530273 65.7750015258789,20.149999618530273 C65.7750015258789,20.149999618530273 60.8380012512207,20.149999618530273 60.8380012512207,20.149999618530273 C60.8380012512207,20.149999618530273 60.8380012512207,30.41900062561035 60.8380012512207,30.41900062561035 C60.8380012512207,32.31399917602539 61.28499984741211,33.76599884033203 62.17900085449219,34.777000427246094 C63.073001861572266,35.78799819946289 64.38800048828125,36.292999267578125 66.1259994506836,36.292999267578125 C67.90299987792969,36.292999267578125 69.31500244140625,35.624000549316406 70.36000061035156,34.2859992980957 C70.36000061035156,34.2859992980957 70.50599670410156,36 70.50599670410156,36z" />
      </g>
      <g opacity="1" transform="matrix(1,0,0,1,0,0)">
        <path fill="rgb(255,255,255)" fill-opacity="1"
          d=" M47.051998138427734,27.343000411987305 C47.18899917602539,24.892000198364258 48.082000732421875,23.666000366210938 49.731998443603516,23.666000366210938 C51.54800033569336,23.666000366210938 52.457000732421875,25.086999893188477 52.457000732421875,27.929000854492188 C52.457000732421875,27.929000854492188 52.457000732421875,28.427000045776367 52.457000732421875,28.427000045776367 C52.417999267578125,31.131999969482422 51.52000045776367,32.48400115966797 49.762001037597656,32.48400115966797 C48.862998962402344,32.48400115966797 48.183998107910156,32.143001556396484 47.724998474121094,31.458999633789062 C47.26599884033203,30.775999069213867 47.0369987487793,29.701000213623047 47.0369987487793,28.236000061035156 C47.0369987487793,28.236000061035156 47.051998138427734,27.343000411987305 47.051998138427734,27.343000411987305z M42.1150016784668,28.763999938964844 C42.22200012207031,31.077999114990234 42.959999084472656,32.9119987487793 44.32699966430664,34.263999938964844 C45.694000244140625,35.617000579833984 47.50600051879883,36.292999267578125 49.762001037597656,36.292999267578125 C52.10599899291992,36.292999267578125 53.9630012512207,35.56800079345703 55.334999084472656,34.11800003051758 C56.707000732421875,32.667999267578125 57.393001556396484,30.707000732421875 57.393001556396484,28.236000061035156 C57.393001556396484,28.236000061035156 57.393001556396484,28.06100082397461 57.393001556396484,28.06100082397461 C57.393001556396484,25.531999588012695 56.709999084472656,23.531999588012695 55.34299850463867,22.062000274658203 C53.97600173950195,20.591999053955078 52.10499954223633,19.85700035095215 49.731998443603516,19.85700035095215 C48.17900085449219,19.85700035095215 46.82699966430664,20.190000534057617 45.67499923706055,20.854000091552734 C44.52299880981445,21.51799964904785 43.63800048828125,22.468000411987305 43.02299880981445,23.702999114990234 C42.40800094604492,24.93899917602539 42.099998474121094,26.347000122070312 42.099998474121094,27.929000854492188 C42.099998474121094,27.929000854492188 42.1150016784668,28.763999938964844 42.1150016784668,28.763999938964844z" />
      </g>
      <g opacity="1" transform="matrix(1,0,0,1,0,0)">
        <path fill="rgb(255,255,255)" fill-opacity="1"
          d=" M38.933998107910156,23.548999786376953 C38.933998107910156,23.548999786376953 30.64299964904785,23.548999786376953 30.64299964904785,23.548999786376953 C30.64299964904785,23.548999786376953 30.64299964904785,18.642000198364258 30.64299964904785,18.642000198364258 C30.64299964904785,18.642000198364258 39.76900100708008,18.642000198364258 39.76900100708008,18.642000198364258 C39.76900100708008,18.642000198364258 39.76900100708008,14.67199993133545 39.76900100708008,14.67199993133545 C39.76900100708008,14.67199993133545 25.500999450683594,14.67199993133545 25.500999450683594,14.67199993133545 C25.500999450683594,14.67199993133545 25.500999450683594,36 25.500999450683594,36 C25.500999450683594,36 30.64299964904785,36 30.64299964904785,36 C30.64299964904785,36 30.64299964904785,27.503999710083008 30.64299964904785,27.503999710083008 C30.64299964904785,27.503999710083008 38.933998107910156,27.503999710083008 38.933998107910156,27.503999710083008 C38.933998107910156,27.503999710083008 38.933998107910156,23.548999786376953 38.933998107910156,23.548999786376953z" />
      </g>
      <g opacity="1" transform="matrix(1,0,0,1,0,0)">
        <path fill="rgb(255,255,255)" fill-opacity="1"
          d=" M5.61899995803833,16.209999084472656 C5.61899995803833,16.209999084472656 5.61899995803833,20.149999618530273 5.61899995803833,20.149999618530273 C5.61899995803833,20.149999618530273 3.5969998836517334,20.149999618530273 3.5969998836517334,20.149999618530273 C3.5969998836517334,20.149999618530273 3.5969998836517334,23.577999114990234 3.5969998836517334,23.577999114990234 C3.5969998836517334,23.577999114990234 5.61899995803833,23.577999114990234 5.61899995803833,23.577999114990234 C5.61899995803833,23.577999114990234 5.61899995803833,31.444000244140625 5.61899995803833,31.444000244140625 C5.61899995803833,33.07500076293945 6.02400016784668,34.29100036621094 6.835000038146973,35.09199905395508 C7.644999980926514,35.893001556396484 8.899999618530273,36.292999267578125 10.598999977111816,36.292999267578125 C11.565999984741211,36.292999267578125 12.494000434875488,36.1510009765625 13.383000373840332,35.86800003051758 C13.383000373840332,35.86800003051758 13.383000373840332,32.3380012512207 13.383000373840332,32.3380012512207 C13.050999641418457,32.39699935913086 12.640000343322754,32.42599868774414 12.152000427246094,32.42599868774414 C11.517000198364258,32.42599868774414 11.093000411987305,32.30799865722656 10.878000259399414,32.07400131225586 C10.663000106811523,31.84000015258789 10.555000305175781,31.424999237060547 10.555000305175781,30.82900047302246 C10.555000305175781,30.82900047302246 10.555000305175781,23.577999114990234 10.555000305175781,23.577999114990234 C10.555000305175781,23.577999114990234 13.163000106811523,23.577999114990234 13.163000106811523,23.577999114990234 C13.163000106811523,23.577999114990234 13.163000106811523,20.149999618530273 13.163000106811523,20.149999618530273 C13.163000106811523,20.149999618530273 10.555000305175781,20.149999618530273 10.555000305175781,20.149999618530273 C10.555000305175781,20.149999618530273 10.555000305175781,16.209999084472656 10.555000305175781,16.209999084472656 C10.555000305175781,16.209999084472656 5.61899995803833,16.209999084472656 5.61899995803833,16.209999084472656z" />
      </g>
      <g opacity="1" transform="matrix(1,0,0,1,0,0)">
        <path fill="rgb(255,255,255)" fill-opacity="1"
          d=" M-9.060999870300293,27.343000411987305 C-8.923999786376953,24.892000198364258 -8.031000137329102,23.666000366210938 -6.38100004196167,23.666000366210938 C-4.565000057220459,23.666000366210938 -3.6559998989105225,25.086999893188477 -3.6559998989105225,27.929000854492188 C-3.6559998989105225,27.929000854492188 -3.6559998989105225,28.427000045776367 -3.6559998989105225,28.427000045776367 C-3.694999933242798,31.131999969482422 -4.5929999351501465,32.48400115966797 -6.35099983215332,32.48400115966797 C-7.25,32.48400115966797 -7.927999973297119,32.143001556396484 -8.38700008392334,31.458999633789062 C-8.845999717712402,30.775999069213867 -9.076000213623047,29.701000213623047 -9.076000213623047,28.236000061035156 C-9.076000213623047,28.236000061035156 -9.060999870300293,27.343000411987305 -9.060999870300293,27.343000411987305z M-13.998000144958496,28.763999938964844 C-13.890999794006348,31.077999114990234 -13.152999877929688,32.9119987487793 -11.78600025177002,34.263999938964844 C-10.418999671936035,35.617000579833984 -8.607000350952148,36.292999267578125 -6.35099983215332,36.292999267578125 C-4.006999969482422,36.292999267578125 -2.1500000953674316,35.56800079345703 -0.777999997138977,34.11800003051758 C0.593999981880188,32.667999267578125 1.281000018119812,30.707000732421875 1.281000018119812,28.236000061035156 C1.281000018119812,28.236000061035156 1.281000018119812,28.06100082397461 1.281000018119812,28.06100082397461 C1.281000018119812,25.531999588012695 0.597000002861023,23.531999588012695 -0.7699999809265137,22.062000274658203 C-2.13700008392334,20.591999053955078 -4.007999897003174,19.85700035095215 -6.38100004196167,19.85700035095215 C-7.934000015258789,19.85700035095215 -9.28600025177002,20.190000534057617 -10.437999725341797,20.854000091552734 C-11.59000015258789,21.51799964904785 -12.475000381469727,22.468000411987305 -13.09000015258789,23.702999114990234 C-13.704999923706055,24.93899917602539 -14.01200008392334,26.347000122070312 -14.01200008392334,27.929000854492188 C-14.01200008392334,27.929000854492188 -13.998000144958496,28.763999938964844 -13.998000144958496,28.763999938964844z" />
      </g>
      <g opacity="1" transform="matrix(1,0,0,1,0,0)">
        <path fill="rgb(255,255,255)" fill-opacity="1"
          d=" M-17.764999389648438,14.67199993133545 C-17.764999389648438,14.67199993133545 -22.892000198364258,14.67199993133545 -22.892000198364258,14.67199993133545 C-22.892000198364258,14.67199993133545 -22.892000198364258,27.94300079345703 -22.892000198364258,27.94300079345703 C-22.892000198364258,27.94300079345703 -30.43600082397461,14.67199993133545 -30.43600082397461,14.67199993133545 C-30.43600082397461,14.67199993133545 -35.57699966430664,14.67199993133545 -35.57699966430664,14.67199993133545 C-35.57699966430664,14.67199993133545 -35.57699966430664,36 -35.57699966430664,36 C-35.57699966430664,36 -30.43600082397461,36 -30.43600082397461,36 C-30.43600082397461,36 -30.43600082397461,22.729000091552734 -30.43600082397461,22.729000091552734 C-30.43600082397461,22.729000091552734 -22.87700080871582,36 -22.87700080871582,36 C-22.87700080871582,36 -17.764999389648438,36 -17.764999389648438,36 C-17.764999389648438,36 -17.764999389648438,14.67199993133545 -17.764999389648438,14.67199993133545z" />
      </g>
      <g opacity="1" transform="matrix(1,0,0,1,0,0)">
        <path fill="rgb(255,255,255)" fill-opacity="1"
          d=" M-57.21799850463867,32.36000061035156 C-57.520999908447266,32.082000732421875 -57.672000885009766,31.718000411987305 -57.672000885009766,31.268999099731445 C-57.672000885009766,29.72599983215332 -56.8129997253418,28.95400047302246 -55.09400177001953,28.95400047302246 C-55.09400177001953,28.95400047302246 -53.65800094604492,28.95400047302246 -53.65800094604492,28.95400047302246 C-53.65800094604492,28.95400047302246 -53.65800094604492,31.488000869750977 -53.65800094604492,31.488000869750977 C-53.83399963378906,31.81999969482422 -54.125,32.11800003051758 -54.529998779296875,32.38199996948242 C-54.935001373291016,32.645999908447266 -55.44499969482422,32.777000427246094 -56.060001373291016,32.777000427246094 C-56.52899932861328,32.777000427246094 -56.915000915527344,32.63800048828125 -57.21799850463867,32.36000061035156z M-48.03300094604492,36 C-48.03300094604492,36 -48.03300094604492,35.750999450683594 -48.03300094604492,35.750999450683594 C-48.4630012512207,34.97999954223633 -48.6879997253418,33.86600112915039 -48.707000732421875,32.4109992980957 C-48.707000732421875,32.4109992980957 -48.707000732421875,25.395000457763672 -48.707000732421875,25.395000457763672 C-48.736000061035156,23.676000595092773 -49.33700180053711,22.322999954223633 -50.50899887084961,21.336999893188477 C-51.680999755859375,20.35099983215332 -53.27799987792969,19.85700035095215 -55.29899978637695,19.85700035095215 C-57.31999969482422,19.85700035095215 -58.983001708984375,20.334999084472656 -60.2869987487793,21.291000366210938 C-61.590999603271484,22.246999740600586 -62.242000579833984,23.490999221801758 -62.242000579833984,25.02199935913086 C-62.242000579833984,25.02199935913086 -57.305999755859375,25.02199935913086 -57.305999755859375,25.02199935913086 C-57.305999755859375,23.86400032043457 -56.720001220703125,23.28499984741211 -55.54800033569336,23.28499984741211 C-54.28799819946289,23.28499984741211 -53.65800094604492,24.016000747680664 -53.65800094604492,25.47800064086914 C-53.65800094604492,25.47800064086914 -53.65800094604492,26.316999435424805 -53.65800094604492,26.316999435424805 C-53.65800094604492,26.316999435424805 -55.18199920654297,26.316999435424805 -55.18199920654297,26.316999435424805 C-57.604000091552734,26.316999435424805 -59.45000076293945,26.756999969482422 -60.71900177001953,27.63599967956543 C-61.98899841308594,28.514999389648438 -62.62300109863281,29.812999725341797 -62.62300109863281,31.531999588012695 C-62.62300109863281,32.89899826049805 -62.10100173950195,34.03499984741211 -61.055999755859375,34.9379997253418 C-60.01100158691406,35.840999603271484 -58.74100112915039,36.292999267578125 -57.24700164794922,36.292999267578125 C-55.61600112915039,36.292999267578125 -54.34600067138672,35.72200012207031 -53.4379997253418,34.57899856567383 C-53.30099868774414,35.20399856567383 -53.145999908447266,35.678001403808594 -52.970001220703125,36 C-52.970001220703125,36 -48.03300094604492,36 -48.03300094604492,36z" />
      </g>
      <g opacity="1" transform="matrix(1,0,0,1,0,0)">
        <path fill="rgb(255,255,255)" fill-opacity="1"
          d=" M-72.73300170898438,16.209999084472656 C-72.73300170898438,16.209999084472656 -72.73300170898438,20.149999618530273 -72.73300170898438,20.149999618530273 C-72.73300170898438,20.149999618530273 -74.75399780273438,20.149999618530273 -74.75399780273438,20.149999618530273 C-74.75399780273438,20.149999618530273 -74.75399780273438,23.577999114990234 -74.75399780273438,23.577999114990234 C-74.75399780273438,23.577999114990234 -72.73300170898438,23.577999114990234 -72.73300170898438,23.577999114990234 C-72.73300170898438,23.577999114990234 -72.73300170898438,31.444000244140625 -72.73300170898438,31.444000244140625 C-72.73300170898438,33.07500076293945 -72.3280029296875,34.29100036621094 -71.51699829101562,35.09199905395508 C-70.70700073242188,35.893001556396484 -69.45099639892578,36.292999267578125 -67.75199890136719,36.292999267578125 C-66.78500366210938,36.292999267578125 -65.85800170898438,36.1510009765625 -64.96900177001953,35.86800003051758 C-64.96900177001953,35.86800003051758 -64.96900177001953,32.3380012512207 -64.96900177001953,32.3380012512207 C-65.3010025024414,32.39699935913086 -65.71199798583984,32.42599868774414 -66.19999694824219,32.42599868774414 C-66.83499908447266,32.42599868774414 -67.25900268554688,32.30799865722656 -67.4739990234375,32.07400131225586 C-67.68900299072266,31.84000015258789 -67.7959976196289,31.424999237060547 -67.7959976196289,30.82900047302246 C-67.7959976196289,30.82900047302246 -67.7959976196289,23.577999114990234 -67.7959976196289,23.577999114990234 C-67.7959976196289,23.577999114990234 -65.18900299072266,23.577999114990234 -65.18900299072266,23.577999114990234 C-65.18900299072266,23.577999114990234 -65.18900299072266,20.149999618530273 -65.18900299072266,20.149999618530273 C-65.18900299072266,20.149999618530273 -67.7959976196289,20.149999618530273 -67.7959976196289,20.149999618530273 C-67.7959976196289,20.149999618530273 -67.7959976196289,16.209999084472656 -67.7959976196289,16.209999084472656 C-67.7959976196289,16.209999084472656 -72.73300170898438,16.209999084472656 -72.73300170898438,16.209999084472656z" />
      </g>
      <g opacity="1" transform="matrix(1,0,0,1,0,0)">
        <path fill="rgb(255,255,255)" fill-opacity="1"
          d=" M-86.13800048828125,32.36000061035156 C-86.44100189208984,32.082000732421875 -86.59200286865234,31.718000411987305 -86.59200286865234,31.268999099731445 C-86.59200286865234,29.72599983215332 -85.73300170898438,28.95400047302246 -84.01399993896484,28.95400047302246 C-84.01399993896484,28.95400047302246 -82.5790023803711,28.95400047302246 -82.5790023803711,28.95400047302246 C-82.5790023803711,28.95400047302246 -82.5790023803711,31.488000869750977 -82.5790023803711,31.488000869750977 C-82.75499725341797,31.81999969482422 -83.04499816894531,32.11800003051758 -83.44999694824219,32.38199996948242 C-83.8550033569336,32.645999908447266 -84.36599731445312,32.777000427246094 -84.98100280761719,32.777000427246094 C-85.44999694824219,32.777000427246094 -85.83499908447266,32.63800048828125 -86.13800048828125,32.36000061035156z M-76.9540023803711,36 C-76.9540023803711,36 -76.9540023803711,35.750999450683594 -76.9540023803711,35.750999450683594 C-77.38400268554688,34.97999954223633 -77.60900115966797,33.86600112915039 -77.62799835205078,32.4109992980957 C-77.62799835205078,32.4109992980957 -77.62799835205078,25.395000457763672 -77.62799835205078,25.395000457763672 C-77.65699768066406,23.676000595092773 -78.25700378417969,22.322999954223633 -79.42900085449219,21.336999893188477 C-80.60099792480469,20.35099983215332 -82.197998046875,19.85700035095215 -84.21900177001953,19.85700035095215 C-86.23999786376953,19.85700035095215 -87.90299987792969,20.334999084472656 -89.20700073242188,21.291000366210938 C-90.51100158691406,22.246999740600586 -91.16300201416016,23.490999221801758 -91.16300201416016,25.02199935913086 C-91.16300201416016,25.02199935913086 -86.22599792480469,25.02199935913086 -86.22599792480469,25.02199935913086 C-86.22599792480469,23.86400032043457 -85.63999938964844,23.28499984741211 -84.46800231933594,23.28499984741211 C-83.20800018310547,23.28499984741211 -82.5790023803711,24.016000747680664 -82.5790023803711,25.47800064086914 C-82.5790023803711,25.47800064086914 -82.5790023803711,26.316999435424805 -82.5790023803711,26.316999435424805 C-82.5790023803711,26.316999435424805 -84.10199737548828,26.316999435424805 -84.10199737548828,26.316999435424805 C-86.52400207519531,26.316999435424805 -88.37000274658203,26.756999969482422 -89.63899993896484,27.63599967956543 C-90.90899658203125,28.514999389648438 -91.54399871826172,29.812999725341797 -91.54399871826172,31.531999588012695 C-91.54399871826172,32.89899826049805 -91.02100372314453,34.03499984741211 -89.97599792480469,34.9379997253418 C-88.93099975585938,35.840999603271484 -87.66200256347656,36.292999267578125 -86.16799926757812,36.292999267578125 C-84.53700256347656,36.292999267578125 -83.26699829101562,35.72200012207031 -82.35900115966797,34.57899856567383 C-82.22200012207031,35.20399856567383 -82.06600189208984,35.678001403808594 -81.88999938964844,36 C-81.88999938964844,36 -76.9540023803711,36 -76.9540023803711,36z" />
      </g>
      <g opacity="1" transform="matrix(1,0,0,1,0,0)">
        <path fill="rgb(255,255,255)" fill-opacity="1"
          d=" M-104.46600341796875,18.642000198364258 C-102.9520034790039,18.642000198364258 -101.80000305175781,19.163999557495117 -101.00900268554688,20.208999633789062 C-100.21800231933594,21.253999710083008 -99.8219985961914,22.80699920654297 -99.8219985961914,24.867000579833984 C-99.8219985961914,24.867000579833984 -99.8219985961914,25.790000915527344 -99.8219985961914,25.790000915527344 C-99.8219985961914,27.860000610351562 -100.21800231933594,29.420000076293945 -101.00900268554688,30.469999313354492 C-101.80000305175781,31.520000457763672 -102.93299865722656,32.04499816894531 -104.40699768066406,32.04499816894531 C-104.40699768066406,32.04499816894531 -106.19400024414062,32.04499816894531 -106.19400024414062,32.04499816894531 C-106.19400024414062,32.04499816894531 -106.19400024414062,18.642000198364258 -106.19400024414062,18.642000198364258 C-106.19400024414062,18.642000198364258 -104.46600341796875,18.642000198364258 -104.46600341796875,18.642000198364258z M-104.31900024414062,36 C-102.4729995727539,35.9900016784668 -100.8010025024414,35.54800033569336 -99.302001953125,34.67399978637695 C-97.8030014038086,33.79999923706055 -96.64099884033203,32.59000015258789 -95.81600189208984,31.04199981689453 C-94.99099731445312,29.493999481201172 -94.5780029296875,27.743000030517578 -94.5780029296875,25.790000915527344 C-94.5780029296875,25.790000915527344 -94.5780029296875,24.80900001525879 -94.5780029296875,24.80900001525879 C-94.58799743652344,22.875 -95.01499938964844,21.1299991607666 -95.86000061035156,19.57200050354004 C-96.70500183105469,18.013999938964844 -97.87899780273438,16.80900001525879 -99.38300323486328,15.954000473022461 C-100.88700103759766,15.100000381469727 -102.58100128173828,14.67199993133545 -104.46600341796875,14.67199993133545 C-104.46600341796875,14.67199993133545 -111.33599853515625,14.67199993133545 -111.33599853515625,14.67199993133545 C-111.33599853515625,14.67199993133545 -111.33599853515625,36 -111.33599853515625,36 C-111.33599853515625,36 -104.31900024414062,36 -104.31900024414062,36z" />
      </g>
      <g opacity="1" transform="matrix(1,0,0,1,0,0)">
        <path fill="rgb(255,255,255)" fill-opacity="1"
          d=" M35.20800018310547,-0.5619999766349792 C35.887001037597656,0.04100000113248825 36.73400115966797,0.34299999475479126 37.75,0.34299999475479126 C38.76599884033203,0.34299999475479126 39.612998962402344,0.04100000113248825 40.29199981689453,-0.5619999766349792 C40.97100067138672,-1.1649999618530273 41.31100082397461,-1.934999942779541 41.31100082397461,-2.875 C41.31100082397461,-3.813999891281128 40.97100067138672,-4.585999965667725 40.29199981689453,-5.189000129699707 C39.612998962402344,-5.791999816894531 38.76599884033203,-6.093999862670898 37.75,-6.093999862670898 C36.73400115966797,-6.093999862670898 35.887001037597656,-5.791999816894531 35.20800018310547,-5.189000129699707 C34.52899932861328,-4.585999965667725 34.18899917602539,-3.813999891281128 34.18899917602539,-2.875 C34.18899917602539,-1.934999942779541 34.52899932861328,-1.1649999618530273 35.20800018310547,-0.5619999766349792z M41.215999603271484,-27.726999282836914 C41.215999603271484,-27.726999282836914 34.37900161743164,-27.726999282836914 34.37900161743164,-27.726999282836914 C34.37900161743164,-27.726999282836914 35.198001861572266,-8.779000282287598 35.198001861572266,-8.779000282287598 C35.198001861572266,-8.779000282287598 40.39699935913086,-8.779000282287598 40.39699935913086,-8.779000282287598 C40.39699935913086,-8.779000282287598 41.215999603271484,-27.726999282836914 41.215999603271484,-27.726999282836914z" />
      </g>
      <g opacity="1" transform="matrix(1,0,0,1,0,0)">
        <path fill="rgb(255,255,255)" fill-opacity="1"
          d=" M24.68899917602539,-3.384000062942505 C24.351999282836914,-3.109999895095825 23.847000122070312,-2.9739999771118164 23.17300033569336,-2.9739999771118164 C22.44099998474121,-2.9739999771118164 21.84000015258789,-3.1419999599456787 21.371000289916992,-3.4790000915527344 C20.902000427246094,-3.815999984741211 20.656999588012695,-4.35099983215332 20.63800048828125,-5.083000183105469 C20.63800048828125,-5.083000183105469 16.02400016784668,-5.083000183105469 16.02400016784668,-5.083000183105469 C16.02400016784668,-4.15500020980835 16.32200050354004,-3.2720000743865967 16.917999267578125,-2.431999921798706 C17.513999938964844,-1.5920000076293945 18.343000411987305,-0.9269999861717224 19.408000946044922,-0.4390000104904175 C20.472000122070312,0.04899999871850014 21.68400001525879,0.2930000126361847 23.041000366210938,0.2930000126361847 C25.082000732421875,0.2930000126361847 26.743999481201172,-0.16099999845027924 28.027999877929688,-1.069000005722046 C29.312000274658203,-1.9769999980926514 29.954999923706055,-3.1549999713897705 29.954999923706055,-4.599999904632568 C29.954999923706055,-6.718999862670898 28.763999938964844,-8.189000129699707 26.381000518798828,-9.008999824523926 C25.667999267578125,-9.253000259399414 24.84000015258789,-9.463000297546387 23.898000717163086,-9.638999938964844 C22.954999923706055,-9.8149995803833 22.270000457763672,-10.038999557495117 21.84000015258789,-10.312999725341797 C21.40999984741211,-10.586000442504883 21.19499969482422,-10.942999839782715 21.19499969482422,-11.381999969482422 C21.19499969482422,-11.812000274658203 21.3700008392334,-12.170000076293945 21.722000122070312,-12.458000183105469 C22.073999404907227,-12.746000289916992 22.507999420166016,-12.890999794006348 23.025999069213867,-12.890999794006348 C24.36400032043457,-12.890999794006348 25.033000946044922,-12.255000114440918 25.033000946044922,-10.986000061035156 C25.033000946044922,-10.986000061035156 29.983999252319336,-10.986000061035156 29.983999252319336,-10.986000061035156 C29.983999252319336,-12.529000282287598 29.349000930786133,-13.774999618530273 28.079999923706055,-14.722000122070312 C26.809999465942383,-15.668999671936035 25.131000518798828,-16.14299964904785 23.041000366210938,-16.14299964904785 C21.097999572753906,-16.14299964904785 19.524999618530273,-15.670999526977539 18.323999404907227,-14.729000091552734 C17.12299919128418,-13.78600025177002 16.52199935913086,-12.588000297546387 16.52199935913086,-11.133000373840332 C16.52199935913086,-10.312999725341797 16.73200035095215,-9.585000038146973 17.152000427246094,-8.949999809265137 C17.57200050354004,-8.3149995803833 18.18199920654297,-7.776000022888184 18.982999801635742,-7.331999778747559 C19.784000396728516,-6.888000011444092 20.799999237060547,-6.5279998779296875 22.030000686645508,-6.255000114440918 C23.260000228881836,-5.980999946594238 24.09600067138672,-5.7179999351501465 24.53499984741211,-5.464000225067139 C24.974000930786133,-5.210000038146973 25.194000244140625,-4.873000144958496 25.194000244140625,-4.453000068664551 C25.194000244140625,-4.013999938964844 25.025999069213867,-3.6570000648498535 24.68899917602539,-3.384000062942505z" />
      </g>
      <g opacity="1" transform="matrix(1,0,0,1,0,0)">
        <path fill="rgb(255,255,255)" fill-opacity="1"
          d=" M8.434000015258789,-7.5879998207092285 C8.385000228881836,-4.873000144958496 7.573999881744385,-3.5160000324249268 6.001999855041504,-3.5160000324249268 C4.849999904632568,-3.5160000324249268 4.059000015258789,-3.9549999237060547 3.628999948501587,-4.834000110626221 C3.628999948501587,-4.834000110626221 3.628999948501587,-11.074000358581543 3.628999948501587,-11.074000358581543 C4.019000053405762,-11.913999557495117 4.801000118255615,-12.333999633789062 5.9730000495910645,-12.333999633789062 C7.613999843597412,-12.333999633789062 8.434000015258789,-10.928000450134277 8.434000015258789,-8.114999771118164 C8.434000015258789,-8.114999771118164 8.434000015258789,-7.5879998207092285 8.434000015258789,-7.5879998207092285z M13.369999885559082,-8.041999816894531 C13.369999885559082,-10.562000274658203 12.82800006866455,-12.541000366210938 11.744000434875488,-13.982000350952148 C10.65999984741211,-15.42199993133545 9.142000198364258,-16.14299964904785 7.189000129699707,-16.14299964904785 C5.645999908447266,-16.14299964904785 4.400000095367432,-15.557000160217285 3.453000068664551,-14.385000228881836 C3.453000068664551,-14.385000228881836 3.306999921798706,-15.850000381469727 3.306999921798706,-15.850000381469727 C3.306999921798706,-15.850000381469727 -1.3070000410079956,-15.850000381469727 -1.3070000410079956,-15.850000381469727 C-1.3070000410079956,-15.850000381469727 -1.3070000410079956,6.093999862670898 -1.3070000410079956,6.093999862670898 C-1.3070000410079956,6.093999862670898 3.628999948501587,6.093999862670898 3.628999948501587,6.093999862670898 C3.628999948501587,6.093999862670898 3.628999948501587,-1.3040000200271606 3.628999948501587,-1.3040000200271606 C4.566999912261963,-0.23899999260902405 5.763000011444092,0.2930000126361847 7.2179999351501465,0.2930000126361847 C9.102999687194824,0.2930000126361847 10.600000381469727,-0.44200000166893005 11.708000183105469,-1.9119999408721924 C12.815999984741211,-3.381999969482422 13.369999885559082,-5.3470001220703125 13.369999885559082,-7.808000087738037 C13.369999885559082,-7.808000087738037 13.369999885559082,-8.041999816894531 13.369999885559082,-8.041999816894531z" />
      </g>
      <g opacity="1" transform="matrix(1,0,0,1,0,0)">
        <path fill="rgb(255,255,255)" fill-opacity="1"
          d=" M-15.211000442504883,-8.656999588012695 C-15.074000358581543,-11.107999801635742 -14.180000305175781,-12.333999633789062 -12.529999732971191,-12.333999633789062 C-10.71399974822998,-12.333999633789062 -9.805999755859375,-10.913000106811523 -9.805999755859375,-8.071000099182129 C-9.805999755859375,-8.071000099182129 -9.805999755859375,-7.572999954223633 -9.805999755859375,-7.572999954223633 C-9.845000267028809,-4.868000030517578 -10.743000030517578,-3.5160000324249268 -12.50100040435791,-3.5160000324249268 C-13.399999618530273,-3.5160000324249268 -14.07800006866455,-3.8570001125335693 -14.536999702453613,-4.540999889373779 C-14.996000289916992,-5.223999977111816 -15.22599983215332,-6.298999786376953 -15.22599983215332,-7.763999938964844 C-15.22599983215332,-7.763999938964844 -15.211000442504883,-8.656999588012695 -15.211000442504883,-8.656999588012695z M-20.148000717163086,-7.236000061035156 C-20.041000366210938,-4.921999931335449 -19.30299949645996,-3.0880000591278076 -17.93600082397461,-1.7359999418258667 C-16.569000244140625,-0.382999986410141 -14.756999969482422,0.2930000126361847 -12.50100040435791,0.2930000126361847 C-10.156999588012695,0.2930000126361847 -8.298999786376953,-0.4320000112056732 -6.927000045776367,-1.8819999694824219 C-5.554999828338623,-3.3320000171661377 -4.86899995803833,-5.293000221252441 -4.86899995803833,-7.763999938964844 C-4.86899995803833,-7.763999938964844 -4.86899995803833,-7.939000129699707 -4.86899995803833,-7.939000129699707 C-4.86899995803833,-10.468000411987305 -5.552999973297119,-12.468000411987305 -6.920000076293945,-13.937999725341797 C-8.286999702453613,-15.407999992370605 -10.156999588012695,-16.14299964904785 -12.529999732971191,-16.14299964904785 C-14.083000183105469,-16.14299964904785 -15.435999870300293,-15.8100004196167 -16.58799934387207,-15.145999908447266 C-17.739999771118164,-14.482000350952148 -18.624000549316406,-13.531999588012695 -19.23900032043457,-12.29699993133545 C-19.854000091552734,-11.060999870300293 -20.16200065612793,-9.652999877929688 -20.16200065612793,-8.071000099182129 C-20.16200065612793,-8.071000099182129 -20.148000717163086,-7.236000061035156 -20.148000717163086,-7.236000061035156z" />
      </g>
      <g opacity="1" transform="matrix(1,0,0,1,0,0)">
        <path fill="rgb(255,255,255)" fill-opacity="1"
          d=" M-28.54400062561035,-10.13700008392334 C-28.554000854492188,-8.067000389099121 -28.90999984741211,-6.479000091552734 -29.613000869750977,-5.375999927520752 C-30.31599998474121,-4.271999835968018 -31.316999435424805,-3.7209999561309814 -32.61600112915039,-3.7209999561309814 C-33.983001708984375,-3.7209999561309814 -35.013999938964844,-4.2820000648498535 -35.707000732421875,-5.40500020980835 C-36.4010009765625,-6.5279998779296875 -36.74700164794922,-8.135000228881836 -36.74700164794922,-10.225000381469727 C-36.74700164794922,-10.225000381469727 -36.731998443603516,-11.791999816894531 -36.731998443603516,-11.791999816894531 C-36.58599853515625,-15.659000396728516 -35.222999572753906,-17.593000411987305 -32.64500045776367,-17.593000411987305 C-31.32699966430664,-17.593000411987305 -30.31399917602539,-17.04400062561035 -29.606000900268555,-15.944999694824219 C-28.898000717163086,-14.845999717712402 -28.54400062561035,-13.237000465393066 -28.54400062561035,-11.118000030517578 C-28.54400062561035,-11.118000030517578 -28.54400062561035,-10.13700008392334 -28.54400062561035,-10.13700008392334z M-23.31399917602539,-11.206000328063965 C-23.323999404907227,-13.256999969482422 -23.722000122070312,-15.076000213623047 -24.507999420166016,-16.663000106811523 C-25.29400062561035,-18.25 -26.395000457763672,-19.472999572753906 -27.81100082397461,-20.332000732421875 C-29.226999282836914,-21.19099998474121 -30.83799934387207,-21.621000289916992 -32.64500045776367,-21.621000289916992 C-34.47100067138672,-21.621000289916992 -36.0989990234375,-21.18600082397461 -37.529998779296875,-20.316999435424805 C-38.96099853515625,-19.447999954223633 -40.058998107910156,-18.215999603271484 -40.82600021362305,-16.618999481201172 C-41.59299850463867,-15.022000312805176 -41.97600173950195,-13.178999900817871 -41.97600173950195,-11.08899974822998 C-41.97600173950195,-11.08899974822998 -41.97600173950195,-9.887999534606934 -41.97600173950195,-9.887999534606934 C-41.9370002746582,-7.875999927520752 -41.52399826049805,-6.093999862670898 -40.737998962402344,-4.540999889373779 C-39.95199966430664,-2.98799991607666 -38.85599899291992,-1.7940000295639038 -37.45000076293945,-0.9589999914169312 C-36.04399871826172,-0.12399999797344208 -34.43199920654297,0.2930000126361847 -32.61600112915039,0.2930000126361847 C-30.799999237060547,0.2930000126361847 -29.180999755859375,-0.13899999856948853 -27.760000228881836,-1.003000020980835 C-26.339000701904297,-1.8669999837875366 -25.243000030517578,-3.0999999046325684 -24.47100067138672,-4.702000141143799 C-23.700000762939453,-6.302999973297119 -23.31399917602539,-8.145000457763672 -23.31399917602539,-10.225000381469727 C-23.31399917602539,-10.225000381469727 -23.31399917602539,-11.206000328063965 -23.31399917602539,-11.206000328063965z" />
      </g>
    </g>
  </g>
</svg>